<svg preserveAspectRatio="none" width="100%" height="100%" overflow="visible" style="display: block;" viewBox="0 0 16.5055 16.5055" fill="none" xmlns="http://www.w3.org/2000/svg">
<g id="Icon">
<path id="Vector" d="M2.75092 9.62813C2.62077 9.62858 2.49318 9.59208 2.38295 9.5229C2.27272 9.45371 2.18439 9.35466 2.12821 9.23727C2.07204 9.11987 2.05032 8.98895 2.06559 8.8597C2.08087 8.73046 2.1325 8.6082 2.21449 8.50714L9.023 1.49231C9.07407 1.43336 9.14367 1.39352 9.22036 1.37934C9.29706 1.36515 9.3763 1.37746 9.44508 1.41425C9.51386 1.45104 9.56808 1.51012 9.59886 1.58179C9.62963 1.65345 9.63513 1.73346 9.61445 1.80866L8.29401 5.94879C8.25507 6.05299 8.24199 6.16509 8.2559 6.27546C8.26981 6.38583 8.31028 6.49118 8.37385 6.58248C8.43741 6.67377 8.52218 6.74828 8.62087 6.79962C8.71956 6.85095 8.82923 6.87758 8.94047 6.87722H13.7546C13.8847 6.87678 14.0123 6.91327 14.1225 6.98246C14.2328 7.05165 14.3211 7.15069 14.3773 7.26808C14.4335 7.38548 14.4552 7.5164 14.4399 7.64565C14.4246 7.77489 14.373 7.89715 14.291 7.99822L7.48249 15.013C7.43142 15.072 7.36182 15.1118 7.28512 15.126C7.20843 15.1402 7.12918 15.1279 7.06041 15.0911C6.99163 15.0543 6.9374 14.9952 6.90663 14.9236C6.87585 14.8519 6.87036 14.7719 6.89104 14.6967L8.21148 10.5566C8.25042 10.4524 8.26349 10.3403 8.24959 10.2299C8.23568 10.1195 8.19521 10.0142 8.13164 9.92287C8.06807 9.83158 7.98331 9.75707 7.88462 9.70574C7.78593 9.6544 7.67626 9.62777 7.56501 9.62813H2.75092Z" stroke="var(--stroke-0, #1B5438)" stroke-width="1.37546" stroke-linecap="round" stroke-linejoin="round"/>
</g>
</svg>
