<svg preserveAspectRatio="none" width="100%" height="100%" overflow="visible" style="display: block;" viewBox="0 0 52.8175 46.2153" fill="none" xmlns="http://www.w3.org/2000/svg">
<g id="SolarRoofIcon">
<path id="Vector" d="M4.95147 33.011L26.4086 11.5539L47.8657 33.011" stroke="var(--stroke-0, #2FE58C)" stroke-opacity="0.7" stroke-width="1.23791"/>
<path id="Vector_2" d="M4.95147 33.011H47.8657" stroke="var(--stroke-0, #2FE58C)" stroke-opacity="0.7" stroke-width="1.23791"/>
<path id="Vector_3" d="M11.5537 27.2341L21.457 21.4571" stroke="var(--stroke-0, #2FE58C)" stroke-opacity="0.35" stroke-width="1.23791"/>
<path id="Vector_4" d="M14.8548 23.1077L26.4086 17.3308" stroke="var(--stroke-0, #2FE58C)" stroke-opacity="0.35" stroke-width="1.23791"/>
<path id="Vector_5" d="M18.1559 18.9813L31.3602 13.2044" stroke="var(--stroke-0, #2FE58C)" stroke-opacity="0.35" stroke-width="1.23791"/>
<path id="Vector_6" d="M21.457 24.7582L36.3119 18.9813" stroke="var(--stroke-0, #2FE58C)" stroke-opacity="0.35" stroke-width="1.23791"/>
<path id="Vector_7" d="M24.758 20.6319L41.2635 14.855" stroke="var(--stroke-0, #2FE58C)" stroke-opacity="0.35" stroke-width="1.23791"/>
<path id="Vector_8" opacity="0.6" d="M11.5537 27.2341L14.8548 23.1077" stroke="var(--stroke-0, #2FE58C)" stroke-opacity="0.35" stroke-width="0.825274"/>
<path id="Vector_9" opacity="0.6" d="M18.1559 18.9813L21.457 14.855" stroke="var(--stroke-0, #2FE58C)" stroke-opacity="0.35" stroke-width="0.825274"/>
<path id="Vector_10" opacity="0.6" d="M24.758 20.6319L28.0591 16.5055" stroke="var(--stroke-0, #2FE58C)" stroke-opacity="0.35" stroke-width="0.825274"/>
<path id="Vector_11" opacity="0.6" d="M31.3602 13.2044L34.6613 17.3308" stroke="var(--stroke-0, #2FE58C)" stroke-opacity="0.35" stroke-width="0.825274"/>
<path id="Vector_12" opacity="0.6" d="M37.9624 15.6802L41.2635 19.8066" stroke="var(--stroke-0, #2FE58C)" stroke-opacity="0.35" stroke-width="0.825274"/>
<path id="Vector_13" opacity="0.8" d="M42.9141 12.3791C45.193 12.3791 47.0404 10.5317 47.0404 8.25276C47.0404 5.97383 45.193 4.12639 42.9141 4.12639C40.6351 4.12639 38.7877 5.97383 38.7877 8.25276C38.7877 10.5317 40.6351 12.3791 42.9141 12.3791Z" stroke="var(--stroke-0, #2FE58C)" stroke-width="0.990329"/>
<path id="Vector_14" opacity="0.6" d="M47.8657 8.25276H50.3415" stroke="var(--stroke-0, #2FE58C)" stroke-width="0.825274"/>
<path id="Vector_15" opacity="0.6" d="M46.4154 11.7541L48.1661 13.5048" stroke="var(--stroke-0, #2FE58C)" stroke-width="0.825274"/>
<path id="Vector_16" opacity="0.6" d="M42.9141 13.2044V15.6802" stroke="var(--stroke-0, #2FE58C)" stroke-width="0.825274"/>
<path id="Vector_17" opacity="0.6" d="M39.4129 11.7541L37.6622 13.5048" stroke="var(--stroke-0, #2FE58C)" stroke-width="0.825274"/>
<path id="Vector_18" opacity="0.6" d="M37.9624 8.25276H35.4866" stroke="var(--stroke-0, #2FE58C)" stroke-width="0.825274"/>
<path id="Vector_19" opacity="0.6" d="M39.4129 4.75138L37.6622 3.00071" stroke="var(--stroke-0, #2FE58C)" stroke-width="0.825274"/>
<path id="Vector_20" opacity="0.6" d="M42.9141 3.30112V0.825298" stroke="var(--stroke-0, #2FE58C)" stroke-width="0.825274"/>
<path id="Vector_21" opacity="0.6" d="M46.4154 4.75138L48.1661 3.00071" stroke="var(--stroke-0, #2FE58C)" stroke-width="0.825274"/>
</g>
</svg>
