<svg preserveAspectRatio="none" width="100%" height="100%" overflow="visible" style="display: block;" viewBox="0 0 16.5055 16.5055" fill="none" xmlns="http://www.w3.org/2000/svg">
<g id="Icon">
<path id="Vector" d="M8.82354 1.49929C8.64434 1.41755 8.44968 1.37525 8.25272 1.37525C8.05577 1.37525 7.8611 1.41755 7.68191 1.49929L1.78808 4.18143C1.66604 4.23524 1.56228 4.32337 1.48944 4.4351C1.4166 4.54683 1.37782 4.67732 1.37782 4.8107C1.37782 4.94407 1.4166 5.07457 1.48944 5.1863C1.56228 5.29802 1.66604 5.38616 1.78808 5.43997L7.68879 8.12899C7.86798 8.21072 8.06264 8.25302 8.2596 8.25302C8.45656 8.25302 8.65122 8.21072 8.83041 8.12899L14.7311 5.44685C14.8532 5.39304 14.9569 5.3049 15.0298 5.19317C15.1026 5.08145 15.1414 4.95095 15.1414 4.81757C15.1414 4.6842 15.1026 4.5537 15.0298 4.44198C14.9569 4.33025 14.8532 4.24211 14.7311 4.1883L8.82354 1.49929Z" stroke="var(--stroke-0, #1B5438)" stroke-width="1.37546" stroke-linecap="round" stroke-linejoin="round"/>
<path id="Vector_2" d="M1.3754 8.25277C1.37507 8.38431 1.41248 8.51318 1.48318 8.62411C1.55388 8.73503 1.65491 8.82335 1.77428 8.8786L7.68875 11.5676C7.86701 11.6483 8.06044 11.6901 8.25612 11.6901C8.45181 11.6901 8.64524 11.6483 8.8235 11.5676L14.7242 8.88548C14.8459 8.83076 14.9491 8.74181 15.0212 8.62946C15.0932 8.51711 15.131 8.38623 15.13 8.25277" stroke="var(--stroke-0, #1B5438)" stroke-width="1.37546" stroke-linecap="round" stroke-linejoin="round"/>
<path id="Vector_3" d="M1.3754 11.6914C1.37507 11.8229 1.41248 11.9518 1.48318 12.0627C1.55388 12.1736 1.65491 12.262 1.77428 12.3172L7.68875 15.0062C7.86701 15.0869 8.06044 15.1287 8.25612 15.1287C8.45181 15.1287 8.64524 15.0869 8.8235 15.0062L14.7242 12.3241C14.8459 12.2694 14.9491 12.1804 15.0212 12.0681C15.0932 11.9557 15.131 11.8248 15.13 11.6914" stroke="var(--stroke-0, #1B5438)" stroke-width="1.37546" stroke-linecap="round" stroke-linejoin="round"/>
</g>
</svg>
