<svg preserveAspectRatio="none" width="100%" height="100%" overflow="visible" style="display: block;" viewBox="0 0 16.5055 16.5055" fill="none" xmlns="http://www.w3.org/2000/svg">
<g id="Icon">
<path id="Vector" d="M4.81431 11.21C6.32731 11.21 7.56523 9.95142 7.56523 8.42467C7.56523 7.6269 7.17322 6.8704 6.38921 6.23081C5.6052 5.59123 5.01375 4.64216 4.81431 3.64495C4.61487 4.64216 4.0303 5.5981 3.23941 6.23081C2.44853 6.86352 2.0634 7.63378 2.0634 8.42467C2.0634 9.95142 3.30131 11.21 4.81431 11.21Z" stroke="var(--stroke-0, #1B5438)" stroke-width="1.37546" stroke-linecap="round" stroke-linejoin="round"/>
<path id="Vector_2" d="M8.63824 4.53908C9.11123 3.78335 9.44653 2.94977 9.62857 2.07701C9.97244 3.79633 11.004 5.44688 12.3795 6.54725C13.7549 7.64761 14.4427 8.9543 14.4427 10.3298C14.4466 11.2804 14.1682 12.2108 13.6427 13.003C13.1172 13.7952 12.3684 14.4136 11.491 14.7797C10.6137 15.1458 9.64743 15.2432 8.7147 15.0595C7.78197 14.8757 6.92479 14.4192 6.25183 13.7478" stroke="var(--stroke-0, #1B5438)" stroke-width="1.37546" stroke-linecap="round" stroke-linejoin="round"/>
</g>
</svg>
