<svg preserveAspectRatio="none" width="100%" height="100%" overflow="visible" style="display: block;" viewBox="0 0 45 45" fill="none" xmlns="http://www.w3.org/2000/svg">
<g id="Frame" clip-path="url(#clip0_0_15)">
<g id="Vector">
</g>
<path id="Vector_2" d="M3.75 41.25V37.5C3.75 37.5 13.125 33.75 22.5 33.75C31.875 33.75 41.25 37.5 41.25 37.5V41.25H3.75ZM21.1875 17.0625C18.9375 9.75 7.5 11.4375 7.5 11.4375C7.5 11.4375 7.875 26.0625 18.5625 23.8125C17.8125 18.375 15 16.875 15 16.875C20.25 16.875 20.625 23.25 20.625 23.25V31.875H24.375V24C24.375 24 24.375 16.6875 30 14.8125C30 14.8125 26.25 20.4375 26.25 24.1875C39.375 25.5 39.375 7.5 39.375 7.5C39.375 7.5 22.6875 5.625 21.1875 17.0625Z" fill="var(--fill-0, white)"/>
</g>
<defs>
<clipPath id="clip0_0_15">
<rect width="45" height="45" fill="white"/>
</clipPath>
</defs>
</svg>
