<svg preserveAspectRatio="none" width="100%" height="100%" overflow="visible" style="display: block;" viewBox="0 0 45 45" fill="none" xmlns="http://www.w3.org/2000/svg">
<g id="Frame">
<path id="Vector" d="M30 31.875V35.625H3.75V31.875C3.75 31.875 3.75 24.375 16.875 24.375C30 24.375 30 31.875 30 31.875ZM23.4375 14.0625C23.4375 12.7646 23.0526 11.4958 22.3315 10.4166C21.6104 9.33737 20.5855 8.49624 19.3864 7.99954C18.1872 7.50284 16.8677 7.37288 15.5947 7.6261C14.3217 7.87931 13.1524 8.50433 12.2346 9.42211C11.3168 10.3399 10.6918 11.5092 10.4386 12.7822C10.1854 14.0552 10.3153 15.3747 10.812 16.5739C11.3087 17.773 12.1499 18.7979 13.2291 19.519C14.3083 20.2401 15.5771 20.625 16.875 20.625C18.6155 20.625 20.2847 19.9336 21.5154 18.7029C22.7461 17.4722 23.4375 15.803 23.4375 14.0625ZM29.8875 24.375C31.0401 25.267 31.9833 26.4008 32.6506 27.6966C33.318 28.9923 33.6932 30.4186 33.75 31.875V35.625H41.25V31.875C41.25 31.875 41.25 25.0688 29.8875 24.375ZM28.125 7.5C26.8346 7.494 25.5727 7.87975 24.5062 8.60625C25.6452 10.1976 26.2576 12.1055 26.2576 14.0625C26.2576 16.0195 25.6452 17.9274 24.5062 19.5187C25.5727 20.2453 26.8346 20.631 28.125 20.625C29.8655 20.625 31.5347 19.9336 32.7654 18.7029C33.9961 17.4722 34.6875 15.803 34.6875 14.0625C34.6875 12.322 33.9961 10.6528 32.7654 9.42211C31.5347 8.19141 29.8655 7.5 28.125 7.5Z" fill="var(--fill-0, white)"/>
</g>
</svg>
