<svg preserveAspectRatio="none" width="100%" height="100%" overflow="visible" style="display: block;" viewBox="0 0 45 45" fill="none" xmlns="http://www.w3.org/2000/svg">
<g id="Frame" clip-path="url(#clip0_0_24)">
<g id="Vector">
</g>
<path id="Vector_2" d="M22.5 45C16.5326 45 10.8097 42.6295 6.5901 38.4099C2.37053 34.1903 0 28.4674 0 22.5C0 16.5326 2.37053 10.8097 6.5901 6.5901C10.8097 2.37053 16.5326 0 22.5 0C28.4674 0 34.1903 2.37053 38.4099 6.5901C42.6295 10.8097 45 16.5326 45 22.5C45 28.4674 42.6295 34.1903 38.4099 38.4099C34.1903 42.6295 28.4674 45 22.5 45ZM39.9375 27C40.6996 24.0484 40.6996 20.9516 39.9375 18H31.3425C31.5496 20.9964 31.5496 24.0036 31.3425 27H39.9375ZM38.0925 31.5H30.8475C30.4716 34.2122 29.7534 36.8659 28.71 39.3975C32.6626 37.9394 35.9814 35.1459 38.0925 31.5ZM18.18 27H26.82C27.0643 24.005 27.0643 20.995 26.82 18H18.18C17.9357 20.995 17.9357 24.005 18.18 27ZM18.7425 31.5C19.665 36.9 21.285 40.5 22.5 40.5C23.715 40.5 25.335 36.9 26.2575 31.5H18.7425ZM5.0625 27H13.6575C13.4504 24.0036 13.4504 20.9964 13.6575 18H5.0625C4.3004 20.9516 4.3004 24.0484 5.0625 27ZM6.9075 31.5C9.01858 35.1459 12.3374 37.9394 16.29 39.3975C15.345 37.2375 14.625 34.5375 14.1525 31.5H6.9075ZM38.0925 13.5C35.9814 9.85411 32.6626 7.06058 28.71 5.6025C29.655 7.7625 30.375 10.4625 30.8475 13.5H38.0925ZM18.7425 13.5H26.2575C25.335 8.1 23.715 4.5 22.5 4.5C21.285 4.5 19.665 8.1 18.7425 13.5ZM6.9075 13.5H14.1525C14.6025 10.4625 15.345 7.7625 16.29 5.6025C12.3374 7.06058 9.01858 9.85411 6.9075 13.5Z" fill="var(--fill-0, white)"/>
</g>
<defs>
<clipPath id="clip0_0_24">
<rect width="45" height="45" fill="white"/>
</clipPath>
</defs>
</svg>
