<svg preserveAspectRatio="none" width="100%" height="100%" overflow="visible" style="display: block;" viewBox="0 0 45 45" fill="none" xmlns="http://www.w3.org/2000/svg">
<g id="Frame" clip-path="url(#clip0_0_4)">
<g id="Vector">
</g>
<path id="Vector_2" d="M22.6875 39.375C22.1563 39.375 21.7112 39.195 21.3525 38.835C20.9937 38.475 20.8138 38.03 20.8125 37.5C20.8125 37.2812 20.8594 37.0544 20.9531 36.8194C21.0469 36.5844 21.1875 36.3737 21.375 36.1875L30.0469 27.5156L28.6875 26.1562L20.0625 34.8281C19.875 35.0156 19.6719 35.1562 19.4531 35.25C19.2344 35.3437 19 35.3906 18.75 35.3906C18.2188 35.3906 17.7738 35.2112 17.415 34.8525C17.0563 34.4937 16.8762 34.0481 16.875 33.5156C16.875 33.2031 16.9219 32.945 17.0156 32.7412C17.1094 32.5375 17.2344 32.3581 17.3906 32.2031L26.0625 23.5312L24.75 22.2187L16.0781 30.8438C15.8906 31.0313 15.6875 31.1719 15.4688 31.2656C15.25 31.3594 15 31.4062 14.7187 31.4062C14.2187 31.4062 13.7813 31.2188 13.4063 30.8438C13.0313 30.4688 12.8437 30.0312 12.8437 29.5312C12.8437 29.2812 12.8906 29.0469 12.9844 28.8281C13.0781 28.6094 13.2188 28.4062 13.4063 28.2187L22.0781 19.5469L20.7188 18.2344L12.0937 26.9062C11.9375 27.0625 11.75 27.1875 11.5313 27.2812C11.3125 27.375 11.0469 27.4219 10.7344 27.4219C10.2031 27.4219 9.7575 27.2419 9.3975 26.8819C9.0375 26.5219 8.85812 26.0769 8.85937 25.5469C8.85937 25.2969 8.90625 25.0625 9 24.8437C9.09375 24.625 9.23438 24.4219 9.42188 24.2344L19.875 13.7812L26.9063 20.8594C27.25 21.2031 27.6562 21.4769 28.125 21.6806C28.5938 21.8844 29.0625 21.9856 29.5312 21.9844C30.5313 21.9844 31.4062 21.6331 32.1562 20.9306C32.9062 20.2281 33.2812 19.3294 33.2812 18.2344C33.2812 17.7969 33.2031 17.3437 33.0469 16.875C32.8906 16.4062 32.6094 15.9688 32.2031 15.5625L23.8125 7.17187C24.3437 6.67187 24.9375 6.28937 25.5937 6.02437C26.25 5.75937 26.9062 5.62625 27.5625 5.625C28.375 5.625 29.125 5.75812 29.8125 6.02437C30.5 6.29062 31.125 6.70437 31.6875 7.26562L39.6094 15.2344C40.1719 15.7969 40.5863 16.4219 40.8525 17.1094C41.1188 17.7969 41.2512 18.5937 41.25 19.5C41.25 20.125 41.1094 20.7581 40.8281 21.3994C40.5469 22.0406 40.1406 22.6262 39.6094 23.1562L24 38.8125C23.75 39.0625 23.5312 39.2188 23.3437 39.2813C23.1562 39.3438 22.9375 39.375 22.6875 39.375ZM6.60938 24.375L5.39062 23.1562C4.85938 22.6562 4.45312 22.0625 4.17187 21.375C3.89062 20.6875 3.75 19.9687 3.75 19.2187C3.75 18.4062 3.90625 17.6563 4.21875 16.9688C4.53125 16.2813 4.92188 15.7031 5.39062 15.2344L13.3125 7.26562C13.8125 6.76562 14.4063 6.36687 15.0938 6.06937C15.7813 5.77187 16.4531 5.62375 17.1094 5.625C17.9531 5.625 18.7031 5.7425 19.3594 5.9775C20.0156 6.2125 20.6563 6.64187 21.2813 7.26562L30.8906 16.875C31.0781 17.0625 31.2188 17.2656 31.3125 17.4844C31.4063 17.7031 31.4531 17.9375 31.4531 18.1875C31.4531 18.6875 31.2656 19.125 30.8906 19.5C30.5156 19.875 30.0781 20.0625 29.5781 20.0625C29.2969 20.0625 29.0625 20.0237 28.875 19.9462C28.6875 19.8687 28.4844 19.72 28.2656 19.5L19.8281 11.1562L6.60938 24.375Z" fill="var(--fill-0, white)"/>
</g>
<defs>
<clipPath id="clip0_0_4">
<rect width="45" height="45" fill="white"/>
</clipPath>
</defs>
</svg>
