<svg preserveAspectRatio="none" width="100%" height="100%" overflow="visible" style="display: block;" viewBox="0 0 45 45" fill="none" xmlns="http://www.w3.org/2000/svg">
<g id="Frame" clip-path="url(#clip0_0_7)">
<g id="Vector">
</g>
<path id="Vector_2" d="M39.3713 5.625V9.375C39.3713 12.856 37.9884 16.1944 35.527 18.6558C33.0656 21.1172 29.7272 22.5 26.2463 22.5H24.3713V24.375H33.7462V37.5C33.7462 38.4946 33.3512 39.4484 32.6479 40.1516C31.9446 40.8549 30.9908 41.25 29.9963 41.25H14.9963C14.0017 41.25 13.0479 40.8549 12.3446 40.1516C11.6413 39.4484 11.2463 38.4946 11.2463 37.5V24.375H20.6213V18.75C20.6213 15.269 22.0041 11.9306 24.4655 9.46922C26.9269 7.00781 30.2653 5.625 33.7462 5.625H39.3713ZM10.3088 3.75C12.5587 3.74818 14.7762 4.28697 16.7744 5.32101C18.7727 6.35506 20.4932 7.85408 21.7912 9.69187C19.8109 12.2959 18.7411 15.4785 18.7463 18.75V20.625H17.8088C14.0791 20.625 10.5023 19.1434 7.86506 16.5062C5.22783 13.869 3.74625 10.2921 3.74625 6.5625V3.75H10.3088Z" fill="var(--fill-0, white)"/>
</g>
<defs>
<clipPath id="clip0_0_7">
<rect width="45" height="45" fill="white"/>
</clipPath>
</defs>
</svg>
