<svg preserveAspectRatio="none" width="100%" height="100%" overflow="visible" style="display: block;" viewBox="0 0 45 45" fill="none" xmlns="http://www.w3.org/2000/svg">
<g id="Frame" clip-path="url(#clip0_0_18)">
<g id="Vector">
</g>
<path id="Vector_2" d="M22.5 29.0625C20.7595 29.0625 19.0903 28.3711 17.8596 27.1404C16.6289 25.9097 15.9375 24.2405 15.9375 22.5C15.9375 20.7595 16.6289 19.0903 17.8596 17.8596C19.0903 16.6289 20.7595 15.9375 22.5 15.9375C24.2405 15.9375 25.9097 16.6289 27.1404 17.8596C28.3711 19.0903 29.0625 20.7595 29.0625 22.5C29.0625 24.2405 28.3711 25.9097 27.1404 27.1404C25.9097 28.3711 24.2405 29.0625 22.5 29.0625ZM36.4313 24.3188C36.5063 23.7188 36.5625 23.1188 36.5625 22.5C36.5625 21.8813 36.5063 21.2625 36.4313 20.625L40.3875 17.5688C40.7438 17.2875 40.8375 16.7812 40.6125 16.3687L36.8625 9.88125C36.6375 9.46875 36.1312 9.3 35.7187 9.46875L31.05 11.3438C30.075 10.6125 29.0625 9.975 27.8813 9.50625L27.1875 4.5375C27.1494 4.31666 27.0344 4.11643 26.8628 3.97228C26.6912 3.82814 26.4741 3.7494 26.25 3.75H18.75C18.2812 3.75 17.8875 4.0875 17.8125 4.5375L17.1187 9.50625C15.9375 9.975 14.925 10.6125 13.95 11.3438L9.28125 9.46875C8.86875 9.3 8.3625 9.46875 8.1375 9.88125L4.3875 16.3687C4.14375 16.7812 4.25625 17.2875 4.6125 17.5688L8.56875 20.625C8.49375 21.2625 8.4375 21.8813 8.4375 22.5C8.4375 23.1188 8.49375 23.7188 8.56875 24.3188L4.6125 27.4313C4.25625 27.7125 4.14375 28.2188 4.3875 28.6313L8.1375 35.1187C8.3625 35.5312 8.86875 35.6813 9.28125 35.5313L13.95 33.6375C14.925 34.3875 15.9375 35.025 17.1187 35.4938L17.8125 40.4625C17.8875 40.9125 18.2812 41.25 18.75 41.25H26.25C26.7188 41.25 27.1125 40.9125 27.1875 40.4625L27.8813 35.4938C29.0625 35.0063 30.075 34.3875 31.05 33.6375L35.7187 35.5313C36.1312 35.6813 36.6375 35.5312 36.8625 35.1187L40.6125 28.6313C40.8375 28.2188 40.7438 27.7125 40.3875 27.4313L36.4313 24.3188Z" fill="var(--fill-0, white)"/>
</g>
<defs>
<clipPath id="clip0_0_18">
<rect width="45" height="45" fill="white"/>
</clipPath>
</defs>
</svg>
