<svg preserveAspectRatio="none" width="100%" height="100%" overflow="visible" style="display: block;" viewBox="0 0 22 22" fill="none" xmlns="http://www.w3.org/2000/svg">
<g id="Icon" clip-path="url(#clip0_0_12)">
<path id="Vector" d="M5.5 20.1667V3.66667C5.5 3.18044 5.69315 2.71412 6.03697 2.3703C6.38079 2.02649 6.8471 1.83333 7.33333 1.83333H14.6667C15.1529 1.83333 15.6192 2.02649 15.963 2.3703C16.3068 2.71412 16.5 3.18044 16.5 3.66667V20.1667H5.5Z" stroke="var(--stroke-0, #2FE58C)" stroke-width="1.83333" stroke-linecap="round" stroke-linejoin="round"/>
<path id="Vector_2" d="M5.5 11H3.66667C3.18044 11 2.71412 11.1932 2.3703 11.537C2.02649 11.8808 1.83333 12.3471 1.83333 12.8333V18.3333C1.83333 18.8196 2.02649 19.2859 2.3703 19.6297C2.71412 19.9735 3.18044 20.1667 3.66667 20.1667H5.5" stroke="var(--stroke-0, #2FE58C)" stroke-width="1.83333" stroke-linecap="round" stroke-linejoin="round"/>
<path id="Vector_3" d="M16.5 8.25H18.3333C18.8196 8.25 19.2859 8.44315 19.6297 8.78697C19.9735 9.13079 20.1667 9.5971 20.1667 10.0833V18.3333C20.1667 18.8196 19.9735 19.2859 19.6297 19.6297C19.2859 19.9735 18.8196 20.1667 18.3333 20.1667H16.5" stroke="var(--stroke-0, #2FE58C)" stroke-width="1.83333" stroke-linecap="round" stroke-linejoin="round"/>
<path id="Vector_4" d="M9.16667 5.5H12.8333" stroke="var(--stroke-0, #2FE58C)" stroke-width="1.83333" stroke-linecap="round" stroke-linejoin="round"/>
<path id="Vector_5" d="M9.16667 9.16667H12.8333" stroke="var(--stroke-0, #2FE58C)" stroke-width="1.83333" stroke-linecap="round" stroke-linejoin="round"/>
<path id="Vector_6" d="M9.16667 12.8333H12.8333" stroke="var(--stroke-0, #2FE58C)" stroke-width="1.83333" stroke-linecap="round" stroke-linejoin="round"/>
<path id="Vector_7" d="M9.16667 16.5H12.8333" stroke="var(--stroke-0, #2FE58C)" stroke-width="1.83333" stroke-linecap="round" stroke-linejoin="round"/>
</g>
<defs>
<clipPath id="clip0_0_12">
<rect width="22" height="22" fill="white"/>
</clipPath>
</defs>
</svg>
