<svg width="18.16" height="18.16" viewBox="0 0 18.16 18.16" fill="none" xmlns="http://www.w3.org/2000/svg">
<path d="M8.32157 15.13C6.9932 15.134 5.71183 14.6387 4.73161 13.7422C3.75138 12.8456 3.1439 11.6135 3.02964 10.29C2.91539 8.96656 3.30271 7.6485 4.11478 6.59725C4.92685 5.546 6.10436 4.83835 7.41377 4.61466C11.7258 3.7825 12.8606 3.38912 14.3736 1.513C15.1301 3.026 15.8866 4.67518 15.8866 7.56501C15.8866 11.7258 12.2705 15.13 8.32157 15.13Z" stroke="#1B5438" stroke-width="1.513" stroke-linecap="round" stroke-linejoin="round"/>
<path d="M1.51294 15.8865C1.51294 13.617 2.91247 11.8317 5.35597 11.3475C7.1867 10.9844 9.07795 9.8345 9.83445 9.078" stroke="#1B5438" stroke-width="1.513" stroke-linecap="round" stroke-linejoin="round"/>
</svg>
