<svg width="18.16" height="18.16" viewBox="0 0 18.16 18.16" fill="none" xmlns="http://www.w3.org/2000/svg">
<path d="M8.32154 16.4388C8.55155 16.5716 8.81245 16.6415 9.07804 16.6415C9.34363 16.6415 9.60454 16.5716 9.83454 16.4388L15.1301 13.4128C15.3598 13.2801 15.5507 13.0894 15.6835 12.8597C15.8162 12.63 15.8863 12.3694 15.8866 12.1041V6.05204C15.8863 5.78672 15.8162 5.52613 15.6835 5.29642C15.5507 5.06671 15.3598 4.87596 15.1301 4.7433L9.83454 1.71729C9.60454 1.5845 9.34363 1.51459 9.07804 1.51459C8.81245 1.51459 8.55155 1.5845 8.32154 1.71729L3.02603 4.7433C2.79625 4.87596 2.6054 5.06671 2.47262 5.29642C2.33984 5.52613 2.2698 5.78672 2.26953 6.05204V12.1041C2.2698 12.3694 2.33984 12.63 2.47262 12.8597C2.6054 13.0894 2.79625 13.2801 3.02603 13.4128L8.32154 16.4388Z" stroke="#2FE58C" stroke-width="1.513" stroke-linecap="round" stroke-linejoin="round"/>
<path d="M9.07788 16.643V9.078" stroke="#2FE58C" stroke-width="1.513" stroke-linecap="round" stroke-linejoin="round"/>
<path d="M2.48877 5.29553L9.07789 9.07804L15.667 5.29553" stroke="#2FE58C" stroke-width="1.513" stroke-linecap="round" stroke-linejoin="round"/>
<path d="M5.67358 3.23029L12.4821 7.12627" stroke="#2FE58C" stroke-width="1.513" stroke-linecap="round" stroke-linejoin="round"/>
</svg>
