<svg width="18.16" height="18.16" viewBox="0 0 18.16 18.16" fill="none" xmlns="http://www.w3.org/2000/svg">
<path d="M4.53882 16.643V3.026C4.53882 2.62473 4.69822 2.23989 4.98197 1.95615C5.26571 1.67241 5.65055 1.513 6.05182 1.513H12.1038C12.5051 1.513 12.8899 1.67241 13.1737 1.95615C13.4574 2.23989 13.6168 2.62473 13.6168 3.026V16.643H4.53882Z" stroke="#1B5438" stroke-width="1.513" stroke-linecap="round" stroke-linejoin="round"/>
<path d="M4.53894 9.078H3.02594C2.62467 9.078 2.23983 9.23741 1.95609 9.52115C1.67234 9.80489 1.51294 10.1897 1.51294 10.591V15.13C1.51294 15.5313 1.67234 15.9161 1.95609 16.1999C2.23983 16.4836 2.62467 16.643 3.02594 16.643H4.53894" stroke="#1B5438" stroke-width="1.513" stroke-linecap="round" stroke-linejoin="round"/>
<path d="M13.6169 6.80853H15.1299C15.5312 6.80853 15.9161 6.96794 16.1998 7.25168C16.4835 7.53542 16.6429 7.92026 16.6429 8.32154V15.13C16.6429 15.5313 16.4835 15.9162 16.1998 16.1999C15.9161 16.4836 15.5312 16.643 15.1299 16.643H13.6169" stroke="#1B5438" stroke-width="1.513" stroke-linecap="round" stroke-linejoin="round"/>
<path d="M7.56494 4.539H10.5909" stroke="#1B5438" stroke-width="1.513" stroke-linecap="round" stroke-linejoin="round"/>
<path d="M7.56494 7.565H10.5909" stroke="#1B5438" stroke-width="1.513" stroke-linecap="round" stroke-linejoin="round"/>
<path d="M7.56494 10.591H10.5909" stroke="#1B5438" stroke-width="1.513" stroke-linecap="round" stroke-linejoin="round"/>
<path d="M7.56494 13.617H10.5909" stroke="#1B5438" stroke-width="1.513" stroke-linecap="round" stroke-linejoin="round"/>
</svg>
